<svg id="e3R7zKsmI5e1" xmlns="http://www.w3.org/2000/svg" xmlns:xlink="http://www.w3.org/1999/xlink" viewBox="0 0 1920 1080" shape-rendering="geometricPrecision" text-rendering="geometricPrecision" project-id="8832c01e3fe1489a82619708442ac2f7" export-id="b78b314feca64318813f310f69486d47" cached="false"><defs><clipPath id="e3R7zKsmI5e2"><path id="e3R7zKsmI5e3" d="M91.26,250.66l181.09,9.58c2.326364.209682,4.487926-1.21926,5.206421-3.441804s-.19755-4.646401-2.206421-5.838196l-.26-.17c-17-11.15-45.59-26-96.82-26.57h-1.61c-35.23,0-64.13,12.16-85.22,21l-1,.44c-1.139237.444494-1.812348,1.625249-1.614439,2.832008s1.212904,2.110664,2.434439,2.167992Z"/></clipPath><linearGradient id="e3R7zKsmI5e57-fill" x1="291.359922" y1="248.3" x2="299.689922" y2="217.36" spreadMethod="pad" gradientUnits="userSpaceOnUse" gradientTransform="translate(0 0)"><stop id="e3R7zKsmI5e57-fill-0" offset="2%" stop-color="#efefef"/><stop id="e3R7zKsmI5e57-fill-1" offset="55%" stop-color="#e4e4e6"/><stop id="e3R7zKsmI5e57-fill-2" offset="99%" stop-color="#9a9a9c"/></linearGradient><linearGradient id="e3R7zKsmI5e58-fill" x1="292.649922" y1="240.84" x2="271.189922" y2="309.15" spreadMethod="pad" gradientUnits="userSpaceOnUse" gradientTransform="translate(0 0)"><stop id="e3R7zKsmI5e58-fill-0" offset="0%" stop-color="#d0d0d2"/><stop id="e3R7zKsmI5e58-fill-1" offset="14%" stop-color="#e6e6e6"/><stop id="e3R7zKsmI5e58-fill-2" offset="66%" stop-color="#a8a8a8"/><stop id="e3R7zKsmI5e58-fill-3" offset="85%" stop-color="#9d9d9e"/><stop id="e3R7zKsmI5e58-fill-4" offset="100%" stop-color="#b7b7ba"/></linearGradient><linearGradient id="e3R7zKsmI5e59-fill" x1="280.269922" y1="215.28" x2="243.149922" y2="308.65" spreadMethod="pad" gradientUnits="userSpaceOnUse" gradientTransform="translate(0 0)"><stop id="e3R7zKsmI5e59-fill-0" offset="0%" stop-color="#6e737a"/><stop id="e3R7zKsmI5e59-fill-1" offset="79%" stop-color="#484b4e"/><stop id="e3R7zKsmI5e59-fill-2" offset="100%" stop-color="#55585e"/></linearGradient><linearGradient id="e3R7zKsmI5e60-fill" x1="283.759922" y1="252.5" x2="259.599922" y2="328.37" spreadMethod="pad" gradientUnits="userSpaceOnUse" gradientTransform="translate(0 0)"><stop id="e3R7zKsmI5e60-fill-0" offset="0%" stop-color="#d0d0d2"/><stop id="e3R7zKsmI5e60-fill-1" offset="19%" stop-color="#cfcfcf"/><stop id="e3R7zKsmI5e60-fill-2" offset="44%" stop-color="#959596"/><stop id="e3R7zKsmI5e60-fill-3" offset="81%" stop-color="#a8a8a8"/><stop id="e3R7zKsmI5e60-fill-4" offset="100%" stop-color="#9a9a9c"/></linearGradient><linearGradient id="e3R7zKsmI5e61-fill" x1="108.9" y1="248.3" x2="100.57" y2="217.36" spreadMethod="pad" gradientUnits="userSpaceOnUse" gradientTransform="translate(0 0)"><stop id="e3R7zKsmI5e61-fill-0" offset="2%" stop-color="#efefef"/><stop id="e3R7zKsmI5e61-fill-1" offset="55%" stop-color="#e4e4e6"/><stop id="e3R7zKsmI5e61-fill-2" offset="99%" stop-color="#9a9a9c"/></linearGradient><linearGradient id="e3R7zKsmI5e62-fill" x1="107.61" y1="240.84" x2="129.08" y2="309.15" spreadMethod="pad" gradientUnits="userSpaceOnUse" gradientTransform="translate(0 0)"><stop id="e3R7zKsmI5e62-fill-0" offset="0%" stop-color="#d0d0d2"/><stop id="e3R7zKsmI5e62-fill-1" offset="14%" stop-color="#e6e6e6"/><stop id="e3R7zKsmI5e62-fill-2" offset="66%" stop-color="#a8a8a8"/><stop id="e3R7zKsmI5e62-fill-3" offset="85%" stop-color="#9d9d9e"/><stop id="e3R7zKsmI5e62-fill-4" offset="100%" stop-color="#b7b7ba"/></linearGradient><linearGradient id="e3R7zKsmI5e63-fill" x1="119.99" y1="215.28" x2="157.11" y2="308.65" spreadMethod="pad" gradientUnits="userSpaceOnUse" gradientTransform="translate(0 0)"><stop id="e3R7zKsmI5e63-fill-0" offset="0%" stop-color="#6e737a"/><stop id="e3R7zKsmI5e63-fill-1" offset="79%" stop-color="#484b4e"/><stop id="e3R7zKsmI5e63-fill-2" offset="100%" stop-color="#55585e"/></linearGradient><linearGradient id="e3R7zKsmI5e64-fill" x1="116.51" y1="252.5" x2="140.66" y2="328.37" spreadMethod="pad" gradientUnits="userSpaceOnUse" gradientTransform="translate(0 0)"><stop id="e3R7zKsmI5e64-fill-0" offset="0%" stop-color="#d0d0d2"/><stop id="e3R7zKsmI5e64-fill-1" offset="19%" stop-color="#cfcfcf"/><stop id="e3R7zKsmI5e64-fill-2" offset="44%" stop-color="#959596"/><stop id="e3R7zKsmI5e64-fill-3" offset="81%" stop-color="#a8a8a8"/><stop id="e3R7zKsmI5e64-fill-4" offset="100%" stop-color="#9a9a9c"/></linearGradient><linearGradient id="e3R7zKsmI5e65-fill" x1="204.27" y1="245.03" x2="185.18" y2="80.93" spreadMethod="pad" gradientUnits="userSpaceOnUse" gradientTransform="translate(0 0)"><stop id="e3R7zKsmI5e65-fill-0" offset="2%" stop-color="#efefef"/><stop id="e3R7zKsmI5e65-fill-1" offset="9%" stop-color="#e4e4e6"/><stop id="e3R7zKsmI5e65-fill-2" offset="90%" stop-color="#f7f7f7"/><stop id="e3R7zKsmI5e65-fill-3" offset="99%" stop-color="#e4e4e6"/></linearGradient><linearGradient id="e3R7zKsmI5e66-fill" x1="200.01" y1="94.08" x2="200.19" y2="150.28" spreadMethod="pad" gradientUnits="userSpaceOnUse" gradientTransform="translate(0 0)"><stop id="e3R7zKsmI5e66-fill-0" offset="2%" stop-color="#efefef"/><stop id="e3R7zKsmI5e66-fill-1" offset="20%" stop-color="#e4e4e6"/><stop id="e3R7zKsmI5e66-fill-2" offset="99%" stop-color="#d4d4d6"/></linearGradient></defs><g transform="translate(-6930.406983 613.015595)"><g><path d="M108.64,255.38c-5,8.44-5.06,15.47,10.14,30.43c12.37,12.18,21.67,21.94,26,26.54c1.718328,1.833563,4.107416,2.890969,6.62,2.93l116.22,1.89c2.792451.036166,5.339223-1.590937,6.48-4.14c4.28-9.69,13.49-33.92,6.52-49.51" fill="none" stroke="#a12f2f" stroke-width="3" stroke-linecap="round" stroke-miterlimit="10"/><path d="M191,315.15c2.31-17.43,1.13-38.08-.56-56.15" fill="none" stroke="#a12f2f" stroke-width="3" stroke-linecap="round" stroke-miterlimit="10"/><path d="M32.07,277.22l12.53-.58c3.856394-.162961,7.312466-2.428608,9-5.9l2.27-4.66c.649307-1.331793.565435-2.904365-.221846-4.159539s-2.166516-2.015257-3.648154-2.010461c-6,0-14.6,0-20.61,0c.68,2.71,1.57,6.34.91,15.21-.1.68-.16,1.38-.23,2.1Z" fill="#e0debe"/><g><path d="M91.26,250.66l181.09,9.58c2.326364.209682,4.487926-1.21926,5.206421-3.441804s-.19755-4.646401-2.206421-5.838196l-.26-.17c-17-11.15-45.59-26-96.82-26.57h-1.61c-35.23,0-64.13,12.16-85.22,21l-1,.44c-1.139237.444494-1.812348,1.625249-1.614439,2.832008s1.212904,2.110664,2.434439,2.167992Z" fill="#6ed2e6"/><g><g clip-path="url(#e3R7zKsmI5e2)"><g><polygon points="202.57,296.95 223.57,296.95 277.29,169.82 256.29,169.82 202.57,296.95" fill="#97ecfc"/><polygon points="187.87,296.95 195.87,296.95 249.6,169.82 241.6,169.82 187.87,296.95" fill="#97ecfc"/><polygon points="148.21,296.14 153.21,296.14 206.93,169.01 201.93,169.01 148.21,296.14" fill="#97ecfc"/><polygon points="116.28,296.14 141.28,296.14 195,169.01 170,169.01 116.28,296.14" fill="#97ecfc"/><polygon points="102.62,296.14 110.62,296.14 164.34,169.01 156.34,169.01 102.62,296.14" fill="#97ecfc"/></g></g></g></g><path d="M189.11,224.57c-2-.11-4-.2-6.09-.26-.00935.136507-.00935.273493,0,.41c0,.27,2.31,13.45,4.08,31l6.1.32c-1.53-15.7-3.52-28.04-4.09-31.47Z" fill="#c74647"/><path d="M124.9,232.57c-12.67,3.94-23.87,8.65-33.45,12.68l-1,.44c-1.142901.447503-1.814763,1.635762-1.609058,2.84579s1.232483,2.109518,2.459058,2.15421l19.74,1v0c.47-.74,9.44-13.06,13.86-19.12Z" fill="#4faabd"/><path d="M277.05,261.42l-6.28,1.48c-1.216087.28149-2.494121-.009189-3.468833-.788959s-1.538845-1.962824-1.531167-3.211041v-5c.000476-1.165402.499292-2.274975,1.370641-3.048871s2.03205-1.138235,3.189359-1.001129l5.91.7c2.845826.320461,4.99764,2.726189,5,5.59v0c.019392,2.526549-1.725114,4.724876-4.19,5.28Z" fill="#a12f2f"/><path d="M381.85,284.47c-9.76-5.67-30.52-12.06-31.85-8.47-2.06,5.54,21.79,13.07,30.73,15.37" fill="#e0debe"/><path d="M117.59,259.38l16,.93c.534965.019231,1.011349.343956,1.224791.834873s.12601,1.06078-.224791,1.465127c-4.41,5-15.67,3.91-18.35-1.26-.211884-.444364-.171002-.967952.107284-1.374044s.751831-.633185,1.242716-.595956Z" fill="#a12f2f"/><path d="M200.59,263.45l16,.93c.534965.019231,1.011349.343956,1.224791.834873s.12601,1.06078-.224791,1.465127c-4.41,5-15.67,3.91-18.35-1.26-.211884-.444364-.171002-.967952.107284-1.374044s.751831-.633185,1.242716-.595956Z" fill="#a12f2f"/><path d="M355.12,303.62L351.4,316c-.239803.798756-.083455,1.664015.420719,2.328338s1.295459,1.04771,2.129281,1.031662c12.31-.25,20.54-.59,22.49-1c2.33-.54,4.88-7.29,5.52-13.15.11-1,.2-2,.25-2.87.049235-.704113-.188808-1.398148-.659839-1.923818s-1.134885-.838154-1.840161-.866182l-17.81-.73c-3.089294-.130381-5.87654,1.84289-6.78,4.8Z" fill="#a12f2f"/></g><g><circle r="28.2" transform="translate(318.42 314.02)" fill="#403945"/><circle r="19.24" transform="translate(318.42 314.02)" fill="#a8a8a8"/><circle r="14.87" transform="translate(318.42 314.02)" fill="#e0e0e0"/><line x1="318.42" y1="296.8" x2="318.42" y2="310.35" fill="none" stroke="#a8a8a8" stroke-width="2.51894" stroke-miterlimit="10"/><line x1="328.53" y1="300.09" x2="320.57" y2="311.05" fill="none" stroke="#a8a8a8" stroke-width="2.51894" stroke-miterlimit="10"/><line x1="334.79" y1="308.7" x2="321.9" y2="312.88" fill="none" stroke="#a8a8a8" stroke-width="2.51894" stroke-miterlimit="10"/><line x1="334.79" y1="319.34" x2="321.9" y2="315.15" fill="none" stroke="#a8a8a8" stroke-width="2.51894" stroke-miterlimit="10"/><line x1="328.53" y1="327.94" x2="320.57" y2="316.98" fill="none" stroke="#a8a8a8" stroke-width="2.51894" stroke-miterlimit="10"/><line x1="318.42" y1="331.23" x2="318.42" y2="317.68" fill="none" stroke="#a8a8a8" stroke-width="2.51894" stroke-miterlimit="10"/><line x1="308.3" y1="327.94" x2="316.26" y2="316.98" fill="none" stroke="#a8a8a8" stroke-width="2.51894" stroke-miterlimit="10"/><line x1="302.05" y1="319.34" x2="314.93" y2="315.15" fill="none" stroke="#a8a8a8" stroke-width="2.51894" stroke-miterlimit="10"/><line x1="302.05" y1="308.7" x2="314.93" y2="312.88" fill="none" stroke="#a8a8a8" stroke-width="2.51894" stroke-miterlimit="10"/><line x1="308.3" y1="300.09" x2="316.26" y2="311.05" fill="none" stroke="#a8a8a8" stroke-width="2.51894" stroke-miterlimit="10"/><circle r="4.91" transform="translate(318.42 314.02)" fill="#453e4a"/></g><g><circle r="28.2" transform="translate(96.13 314.02)" fill="#403945"/><circle r="19.24" transform="translate(96.13 314.02)" fill="#a8a8a8"/><circle r="14.87" transform="translate(96.13 314.02)" fill="#e0e0e0"/><line x1="96.13" y1="296.8" x2="96.13" y2="310.35" fill="none" stroke="#a8a8a8" stroke-width="2.51894" stroke-miterlimit="10"/><line x1="106.25" y1="300.09" x2="98.29" y2="311.05" fill="none" stroke="#a8a8a8" stroke-width="2.51894" stroke-miterlimit="10"/><line x1="112.5" y1="308.7" x2="99.62" y2="312.88" fill="none" stroke="#a8a8a8" stroke-width="2.51894" stroke-miterlimit="10"/><line x1="112.5" y1="319.34" x2="99.62" y2="315.15" fill="none" stroke="#a8a8a8" stroke-width="2.51894" stroke-miterlimit="10"/><line x1="106.25" y1="327.94" x2="98.29" y2="316.98" fill="none" stroke="#a8a8a8" stroke-width="2.51894" stroke-miterlimit="10"/><line x1="96.13" y1="331.23" x2="96.13" y2="317.68" fill="none" stroke="#a8a8a8" stroke-width="2.51894" stroke-miterlimit="10"/><line x1="86.01" y1="327.94" x2="93.97" y2="316.98" fill="none" stroke="#a8a8a8" stroke-width="2.51894" stroke-miterlimit="10"/><line x1="79.76" y1="319.34" x2="92.64" y2="315.15" fill="none" stroke="#a8a8a8" stroke-width="2.51894" stroke-miterlimit="10"/><line x1="79.76" y1="308.7" x2="92.64" y2="312.88" fill="none" stroke="#a8a8a8" stroke-width="2.51894" stroke-miterlimit="10"/><line x1="86.01" y1="300.09" x2="93.97" y2="311.05" fill="none" stroke="#a8a8a8" stroke-width="2.51894" stroke-miterlimit="10"/><circle r="4.91" transform="translate(96.13 314.02)" fill="#453e4a"/></g></g><g transform="matrix(4.066585 0 0 4.208343 146.744957-301.586247)"><path d="M297.06,235.83c4.025002.152295,7.416798-2.975843,7.59-7l1-23.66h4.32c.510599,4.183971.767734,8.394989.77,12.61.017468,13.057462-2.442705,25.999673-7.25,38.14h-23.41v-20.78Z" fill="url(#e3R7zKsmI5e57-fill)"/><path d="M255.39,304.14c9.193386,5.404503,19.409177,8.840414,30,10.09c1.062467.085012,2.063516-.507609,2.5-1.48q12.91-32.88,22.5-66.88c.239379-1.039086-.201143-2.116364-1.1-2.69-9.193386-5.404503-19.409177-8.840414-30-10.09-1.062467-.085012-2.063516.507609-2.5,1.48q-12.91,32.88-22.5,66.88c-.239379,1.039086.201143,2.116364,1.1,2.69Z" fill="url(#e3R7zKsmI5e58-fill)"/><path d="M238.51,310.6c3.799726,1.707851,7.754501,3.047317,11.81,4c4,.92,8.53-1.88,9.89-5.71q13.44-38.12,25.78-76.62c1.24-3.88-.67-8.84-4.42-10.53-3.799726-1.707851-7.754501-3.047317-11.81-4-4-.92-8.52,1.88-9.89,5.71q-13.44,38.12-25.78,76.62c-1.23,3.93.67,8.84,4.42,10.53Z" fill="url(#e3R7zKsmI5e59-fill)"/><path d="M259.59,312.4c2.172811,1.869072,4.989325,2.816282,7.85,2.64.70118-.084981,1.305543-.533502,1.59-1.18q13.79-40,27-80.28c.162091-.68779-.05079-1.410067-.56-1.9-2.172811-1.869072-4.989325-2.816282-7.85-2.64-.70118.084981-1.305543.533502-1.59,1.18q-13.79,40-27,80.28c-.162091.68779.05079,1.410067.56,1.9Z" fill="url(#e3R7zKsmI5e60-fill)"/><path d="M103.2,235.83c-4.025002.152295-7.416798-2.975843-7.59-7l-1-23.66h-4.27c-.510599,4.183971-.767734,8.394989-.77,12.61-.017468,13.057462,2.442705,25.999673,7.25,38.14h23.36v-20.78Z" fill="url(#e3R7zKsmI5e61-fill)"/><path d="M144.87,304.14c-9.193386,5.404503-19.409177,8.840414-30,10.09-1.062467.085012-2.063516-.507609-2.5-1.48q-12.91-32.88-22.5-66.88c-.239379-1.039086.201143-2.116364,1.1-2.69c9.193386-5.404503,19.409177-8.840414,30-10.09c1.062467-.085012,2.063516.507609,2.5,1.48q12.91,32.88,22.5,66.88c.239379,1.039086-.201143,2.116364-1.1,2.69Z" fill="url(#e3R7zKsmI5e62-fill)"/><path d="M161.74,310.6c-3.799726,1.707851-7.754501,3.047317-11.81,4-4,.92-8.53-1.88-9.89-5.71q-13.44-38.12-25.78-76.62c-1.24-3.88.67-8.84,4.42-10.53c3.799726-1.707851,7.754501-3.047317,11.81-4c4-.92,8.52,1.88,9.89,5.71q13.44,38.12,25.78,76.62c1.24,3.93-.66,8.84-4.42,10.53Z" fill="url(#e3R7zKsmI5e63-fill)"/><path d="M140.67,312.4c-2.172811,1.869072-4.989325,2.816282-7.85,2.64-.70118-.084981-1.305543-.533502-1.59-1.18q-13.79-40-27-80.28c-.162091-.68779.05079-1.410067.56-1.9c2.172811-1.869072,4.989325-2.816282,7.85-2.64.70118.084981,1.305543.533502,1.59,1.18q13.79,40,27,80.28c.162091.68779-.05079,1.410067-.56,1.9Z" fill="url(#e3R7zKsmI5e64-fill)"/><path d="M100.87,216.33v-18.84c0-53.521915,43.388085-96.91,96.91-96.91h4.43c53.521915,0,96.91,43.388085,96.91,96.91v18.84c.005352,1.706608.894718,3.288544,2.35,4.18q4.88,3,9.45,6.46c.536909.4015,1.25458.465191,1.853805.16452s.977143-.914093.976195-1.58452v-28.06c0-61.35-50.2-111.55-111.55-111.55h-4.43c-61.35,0-111.55,50.2-111.55,111.55v28.06c-.015507.679443.359386,1.307765.964677,1.616804s1.334079.244217,1.875323-.166804q4.57-3.43,9.45-6.46c1.468222-.894588,2.362961-2.490711,2.36-4.21Z" fill="url(#e3R7zKsmI5e65-fill)"/><path d="M280.9,144.73c-1.556167-.015621-3.016331-.754945-3.95-2-17.689775-23.146027-45.158116-36.723056-74.29-36.72h-4.45c-29.131884-.003056-56.600225,13.573973-74.29,36.72-1.513768,1.962584-4.236851,2.519965-6.4,1.31l-12.69-7.2c-.115353-.068685-.225636-.145549-.33-.23-.462482-.320126-.605434-.939586-.33-1.43c20.831772-31.364715,55.967562-50.234909,93.62-50.28h4.43c37.827102.03257,73.105108,19.074953,93.89,50.68.152415.230913.202349.514654.137922.783728s-.237453.49943-.477922.636272l-12.41,7c-.742535.453187-1.590459.704807-2.46.73Z" fill="url(#e3R7zKsmI5e66-fill)"/></g></svg>
