<svg xmlns="http://www.w3.org/2000/svg" version="1.1" xmlnsXlink="http://www.w3.org/1999/xlink" xmlnsSvgjs="http://svgjs.dev/svgjs" viewBox="0 0 800 800"><g transform="matrix(1,0,0,1,0,0)"><path d="M800 680.4226531982422L800.5000000319496 680.711327930323V681.2886773944847L800 681.5773521265654L799.4999999680504 681.2886773944847V680.711327930323L800 680.4226531982422Z " stroke-width="0.5" stroke="#ff3895" fill="none" opacity="0.15" transform="matrix(-0.5881435334419394,-0.8290375725550417,0.8095101260715186,-0.5591929034707467,328.52082739851534,955.2921904103154)"></path><path d="M733.3333282470703 604.8180643717448L758.7499965378456 619.4923632525193V648.8409610140686L733.3333282470703 663.5152598948432L707.916659956295 648.8409610140686V619.4923632525193L733.3333282470703 604.8180643717448Z " stroke-width="3.0833333333333335" stroke="#ed50ab" fill="none" opacity="0.29166666666666663" transform="matrix(-0.2589285848190441,-0.9730448705798239,0.9663346340765812,-0.23061587074243992,128.04646559011434,881.4642965289055)"></path><path d="M666.6666717529297 529.2134908040365L717.0000083025304 558.273413833505V616.3932598924417L666.6666717529297 645.4531829219102L616.3333352033287 616.3932598924417V558.273413833505L666.6666717529297 529.2134908040365Z " stroke-width="5.666666666666667" stroke="#d962bf" fill="none" opacity="0.43333333333333335" transform="matrix(0.10455677293617312,-0.9918203515412617,0.994791243872146,0.12764164786059476,-34.13978750518709,745.6714814722668)"></path><path d="M600 453.60890197753906L675.2500048084264 497.05444915570126V583.9455435120257L600 627.3910906901879L524.7499951915736 583.9455435120257V497.05444915570126L600 453.60890197753906Z " stroke-width="8.25" stroke="#c472d1" fill="none" opacity="0.575" transform="matrix(0.45405965522432484,-0.8829475928589269,0.8911422494693064,0.46947156278589086,-136.1497296188976,565.3904120292144)"></path><path d="M533.3333282470703 378.0043284098307L633.5000013143223 435.8354997366867V551.4978423903988L533.3333282470703 609.3290137172547L433.1666551798182 551.4978423903988V435.8354997366867L533.3333282470703 378.0043284098307Z " stroke-width="10.833333333333334" stroke="#ab7fe1" fill="none" opacity="0.7166666666666667" transform="matrix(0.743195133839598,-0.6604386239990077,0.6691759042116484,0.7508800329814992,-164.7421541316769,363.8234364070034)"></path><path d="M466.6666564941406 302.3997395833333L591.7499978202183 374.61653505888313V519.0501260099827L466.6666564941406 591.2669214855325L341.58331516806294 519.0501260099827V374.61653505888313L466.6666564941406 302.3997395833333Z " stroke-width="13.416666666666668" stroke="#8f8cf1" fill="none" opacity="0.8583333333333333" transform="matrix(0.9335962258789419,-0.3529305647138687,0.3583740143597258,0.9356495158395315,-116.9061449830424,166.9124195497349)"></path><path d="M400 226.795166015625L550.0000095849032 313.3975856398686V486.60242488835587L400 573.2048445125995L249.99999041509682 486.60242488835587V313.3975856398686L400 226.795166015625Z " stroke-width="16" stroke="#6b97ff" fill="none" opacity="1" transform="matrix(1,0,0,1,0,0)"></path></g></svg>